<?xml version="1.0" encoding="UTF-8"?><svg id="_레이어_1" xmlns="http://www.w3.org/2000/svg" viewBox="0 0 104.98 38.67"><defs><style>.cls-1{fill:#040000;stroke-width:0px;}</style></defs><path class="cls-1" d="M11.6,24.51L0,0h8.2l3.87,9.4c.56,1.47,1.11,2.88,1.65,4.26.54,1.38,1.11,2.82,1.7,4.31h.21c.59-1.5,1.17-2.93,1.75-4.31.57-1.38,1.14-2.79,1.7-4.26L22.94,0h8.05l-11.65,24.51v14.16h-7.74v-14.16Z"/><path class="cls-1" d="M35.43,0h23.73v6.43h-15.99v8.93h13.58v6.48h-13.58v10.35h16.56v6.48h-24.3V0Z"/><path class="cls-1" d="M82.04,22.44v.3c0,2.68-.44,5.33-1.31,6.38-.4.48-.93.84-1.52,1.06-.82.32-1.65.42-2.51.21-.74-.18-1.45-.51-1.99-1.06-.07-.07-.13-.14-.2-.22-.87-1.04-1.31-3.69-1.31-6.38v-.3h-7.73v.93c0,1.81.23,4.3.71,5.91.08.28.21.52.31.78.46,1.27,1.05,2.43,1.86,3.42.88,1.08,2,1.93,3.3,2.6.53.24,1.07.48,1.66.65.26.08.51.18.79.25.62.14,1.24.26,1.87.33s1.22.07,1.83.07c1.23,0,2.32-.16,3.34-.4.42-.1.83-.25,1.24-.39s.83-.3,1.21-.5c1.3-.67,2.42-1.52,3.3-2.6.81-.99,1.4-2.16,1.86-3.42.1-.27.23-.51.31-.78.47-1.6.71-4.1.71-5.91v-.93h-7.73Z"/><path class="cls-1" d="M97.24,0h7.74v38.67h-7.74V0Z"/><circle class="cls-1" cx="71.49" cy="9.64" r="3.86"/><circle class="cls-1" cx="83.77" cy="9.64" r="3.86"/><rect class="cls-1" x="74.71" y="9.21" width="6.6" height=".87"/></svg>