<?xml version="1.0" encoding="utf-8"?>
<!-- Generator: Adobe Illustrator 28.1.0, SVG Export Plug-In . SVG Version: 6.00 Build 0)  -->
<svg version="1.1" id="_레이어_1" xmlns="http://www.w3.org/2000/svg" xmlns:xlink="http://www.w3.org/1999/xlink" x="0px"
	 y="0px" viewBox="0 0 18.4 25" style="enable-background:new 0 0 18.4 25;" xml:space="preserve">
<style type="text/css">
	.st0{fill:#FFFFFF;}
</style>
<path class="st0" d="M9.2,25C4.1,25,0,20.9,0,15.8V9.2C0,4.1,4.1,0,9.2,0s9.2,4.1,9.2,9.2v6.6C18.4,20.9,14.3,25,9.2,25z M9.2,1.3
	c-4.3,0-7.9,3.5-7.9,7.9v6.6c0,4.3,3.5,7.9,7.9,7.9s7.9-3.5,7.9-7.9V9.2C17.1,4.8,13.5,1.3,9.2,1.3L9.2,1.3z"/>
<circle class="st0" cx="9.2" cy="9" r="1"/>
<g>
	<circle class="st0" cx="9.2" cy="5.4" r="1"/>
</g>
<rect x="8.2" y="5.4" class="st0" width="2" height="3.6"/>
</svg>
